# xmcd CD database file
#
# Track frame offsets:
#	183
#	16935
#	37383
#	54218
#	68405
#	99718
#	116033
#	132890
#	149070
#	167425
#	185835
#	204163
#	222020
#	239565
#	259503
#	278820
#
# Disc length: 3949 seconds
#
# Revision: 0
# Processed by: cddbd v1.4PL0 Copyright (c) Steve Scherf et al.
# Submitted via: Feurio! 1.64 - http://www.feurio.com
#
DISCID=eb0f6b10
DTITLE=Various Artist - Hitbreaker Pop News 1994 CD1
DYEAR=1994
DGENRE=
TTITLE0=Tony Christie  - Come back Diana
TTITLE1=Lulu - Let me wake up in your arms
TTITLE2=Rattles - No way out
TTITLE3=Stone and Stone - Hold on
TTITLE4=Héroes del Silencio - La herida
TTITLE5=Bonnie Tyler - Sally comes around
TTITLE6=Love and Peace - Down by the river
TTITLE7=Joe Alexander XII Jaacro Project - Jam 2 the jaacro
TTITLE8=Al Martino - Spanish Ballerina
TTITLE9=C.B. Milton - Send me an angel
TTITLE10=Boney M. - Ma Baker (Remix 93)
TTITLE11=Berny Lyon - The love of a woman
TTITLE12=Ron Williams and Frinds - All you nees is a friend
TTITLE13=John Miles - Whan goes around
TTITLE14=Haddaway - Life
TTITLE15=The Twins - Love is blind
EXTD=
EXTT0=
EXTT1=
EXTT2=
EXTT3=
EXTT4=
EXTT5=
EXTT6=
EXTT7=
EXTT8=
EXTT9=
EXTT10=
EXTT11=
EXTT12=
EXTT13=
EXTT14=
EXTT15=
PLAYORDER=
